<?xml version="1.0" standalone="no"?>
<svg xmlns="http://www.w3.org/2000/svg" version="1.1" width="999" height="999">
	<!-- Created with https://api.qrserver.com (QR Code API, see goQR.me/api for information) -->
	<title>QR Code</title>
	<desc>https://coming-soon-goffee.webflow.io/tavolo</desc>
	<rect style="fill:rgb(255, 255, 255);fill-opacity:1" x="0" y="0" width="999" height="999" />
	<g id="elements">
		<path style="fill:rgb(0, 0, 0)" d="M 0,0 l 27,0 0,27 -27,0 z M 27,0 l 27,0 0,27 -27,0 z M 54,0 l 27,0 0,27 -27,0 z M 81,0 l 27,0 0,27 -27,0 z M 108,0 l 27,0 0,27 -27,0 z M 135,0 l 27,0 0,27 -27,0 z M 162,0 l 27,0 0,27 -27,0 z M 216,0 l 27,0 0,27 -27,0 z M 243,0 l 27,0 0,27 -27,0 z M 270,0 l 27,0 0,27 -27,0 z M 351,0 l 27,0 0,27 -27,0 z M 459,0 l 27,0 0,27 -27,0 z M 486,0 l 27,0 0,27 -27,0 z M 540,0 l 27,0 0,27 -27,0 z M 621,0 l 27,0 0,27 -27,0 z M 756,0 l 27,0 0,27 -27,0 z M 810,0 l 27,0 0,27 -27,0 z M 837,0 l 27,0 0,27 -27,0 z M 864,0 l 27,0 0,27 -27,0 z M 891,0 l 27,0 0,27 -27,0 z M 918,0 l 27,0 0,27 -27,0 z M 945,0 l 27,0 0,27 -27,0 z M 972,0 l 27,0 0,27 -27,0 z M 0,27 l 27,0 0,27 -27,0 z M 162,27 l 27,0 0,27 -27,0 z M 216,27 l 27,0 0,27 -27,0 z M 297,27 l 27,0 0,27 -27,0 z M 324,27 l 27,0 0,27 -27,0 z M 459,27 l 27,0 0,27 -27,0 z M 486,27 l 27,0 0,27 -27,0 z M 513,27 l 27,0 0,27 -27,0 z M 540,27 l 27,0 0,27 -27,0 z M 594,27 l 27,0 0,27 -27,0 z M 621,27 l 27,0 0,27 -27,0 z M 702,27 l 27,0 0,27 -27,0 z M 729,27 l 27,0 0,27 -27,0 z M 756,27 l 27,0 0,27 -27,0 z M 810,27 l 27,0 0,27 -27,0 z M 972,27 l 27,0 0,27 -27,0 z M 0,54 l 27,0 0,27 -27,0 z M 54,54 l 27,0 0,27 -27,0 z M 81,54 l 27,0 0,27 -27,0 z M 108,54 l 27,0 0,27 -27,0 z M 162,54 l 27,0 0,27 -27,0 z M 216,54 l 27,0 0,27 -27,0 z M 351,54 l 27,0 0,27 -27,0 z M 432,54 l 27,0 0,27 -27,0 z M 459,54 l 27,0 0,27 -27,0 z M 486,54 l 27,0 0,27 -27,0 z M 594,54 l 27,0 0,27 -27,0 z M 621,54 l 27,0 0,27 -27,0 z M 648,54 l 27,0 0,27 -27,0 z M 702,54 l 27,0 0,27 -27,0 z M 756,54 l 27,0 0,27 -27,0 z M 810,54 l 27,0 0,27 -27,0 z M 864,54 l 27,0 0,27 -27,0 z M 891,54 l 27,0 0,27 -27,0 z M 918,54 l 27,0 0,27 -27,0 z M 972,54 l 27,0 0,27 -27,0 z M 0,81 l 27,0 0,27 -27,0 z M 54,81 l 27,0 0,27 -27,0 z M 81,81 l 27,0 0,27 -27,0 z M 108,81 l 27,0 0,27 -27,0 z M 162,81 l 27,0 0,27 -27,0 z M 297,81 l 27,0 0,27 -27,0 z M 351,81 l 27,0 0,27 -27,0 z M 378,81 l 27,0 0,27 -27,0 z M 405,81 l 27,0 0,27 -27,0 z M 459,81 l 27,0 0,27 -27,0 z M 513,81 l 27,0 0,27 -27,0 z M 567,81 l 27,0 0,27 -27,0 z M 594,81 l 27,0 0,27 -27,0 z M 675,81 l 27,0 0,27 -27,0 z M 702,81 l 27,0 0,27 -27,0 z M 810,81 l 27,0 0,27 -27,0 z M 864,81 l 27,0 0,27 -27,0 z M 891,81 l 27,0 0,27 -27,0 z M 918,81 l 27,0 0,27 -27,0 z M 972,81 l 27,0 0,27 -27,0 z M 0,108 l 27,0 0,27 -27,0 z M 54,108 l 27,0 0,27 -27,0 z M 81,108 l 27,0 0,27 -27,0 z M 108,108 l 27,0 0,27 -27,0 z M 162,108 l 27,0 0,27 -27,0 z M 243,108 l 27,0 0,27 -27,0 z M 270,108 l 27,0 0,27 -27,0 z M 405,108 l 27,0 0,27 -27,0 z M 432,108 l 27,0 0,27 -27,0 z M 513,108 l 27,0 0,27 -27,0 z M 540,108 l 27,0 0,27 -27,0 z M 621,108 l 27,0 0,27 -27,0 z M 810,108 l 27,0 0,27 -27,0 z M 864,108 l 27,0 0,27 -27,0 z M 891,108 l 27,0 0,27 -27,0 z M 918,108 l 27,0 0,27 -27,0 z M 972,108 l 27,0 0,27 -27,0 z M 0,135 l 27,0 0,27 -27,0 z M 162,135 l 27,0 0,27 -27,0 z M 216,135 l 27,0 0,27 -27,0 z M 243,135 l 27,0 0,27 -27,0 z M 297,135 l 27,0 0,27 -27,0 z M 324,135 l 27,0 0,27 -27,0 z M 351,135 l 27,0 0,27 -27,0 z M 378,135 l 27,0 0,27 -27,0 z M 405,135 l 27,0 0,27 -27,0 z M 432,135 l 27,0 0,27 -27,0 z M 621,135 l 27,0 0,27 -27,0 z M 648,135 l 27,0 0,27 -27,0 z M 675,135 l 27,0 0,27 -27,0 z M 702,135 l 27,0 0,27 -27,0 z M 729,135 l 27,0 0,27 -27,0 z M 756,135 l 27,0 0,27 -27,0 z M 810,135 l 27,0 0,27 -27,0 z M 972,135 l 27,0 0,27 -27,0 z M 0,162 l 27,0 0,27 -27,0 z M 27,162 l 27,0 0,27 -27,0 z M 54,162 l 27,0 0,27 -27,0 z M 81,162 l 27,0 0,27 -27,0 z M 108,162 l 27,0 0,27 -27,0 z M 135,162 l 27,0 0,27 -27,0 z M 162,162 l 27,0 0,27 -27,0 z M 216,162 l 27,0 0,27 -27,0 z M 270,162 l 27,0 0,27 -27,0 z M 324,162 l 27,0 0,27 -27,0 z M 378,162 l 27,0 0,27 -27,0 z M 432,162 l 27,0 0,27 -27,0 z M 486,162 l 27,0 0,27 -27,0 z M 540,162 l 27,0 0,27 -27,0 z M 594,162 l 27,0 0,27 -27,0 z M 648,162 l 27,0 0,27 -27,0 z M 702,162 l 27,0 0,27 -27,0 z M 756,162 l 27,0 0,27 -27,0 z M 810,162 l 27,0 0,27 -27,0 z M 837,162 l 27,0 0,27 -27,0 z M 864,162 l 27,0 0,27 -27,0 z M 891,162 l 27,0 0,27 -27,0 z M 918,162 l 27,0 0,27 -27,0 z M 945,162 l 27,0 0,27 -27,0 z M 972,162 l 27,0 0,27 -27,0 z M 216,189 l 27,0 0,27 -27,0 z M 270,189 l 27,0 0,27 -27,0 z M 297,189 l 27,0 0,27 -27,0 z M 324,189 l 27,0 0,27 -27,0 z M 378,189 l 27,0 0,27 -27,0 z M 432,189 l 27,0 0,27 -27,0 z M 621,189 l 27,0 0,27 -27,0 z M 648,189 l 27,0 0,27 -27,0 z M 756,189 l 27,0 0,27 -27,0 z M 54,216 l 27,0 0,27 -27,0 z M 81,216 l 27,0 0,27 -27,0 z M 108,216 l 27,0 0,27 -27,0 z M 162,216 l 27,0 0,27 -27,0 z M 216,216 l 27,0 0,27 -27,0 z M 270,216 l 27,0 0,27 -27,0 z M 324,216 l 27,0 0,27 -27,0 z M 405,216 l 27,0 0,27 -27,0 z M 432,216 l 27,0 0,27 -27,0 z M 459,216 l 27,0 0,27 -27,0 z M 486,216 l 27,0 0,27 -27,0 z M 513,216 l 27,0 0,27 -27,0 z M 540,216 l 27,0 0,27 -27,0 z M 675,216 l 27,0 0,27 -27,0 z M 702,216 l 27,0 0,27 -27,0 z M 756,216 l 27,0 0,27 -27,0 z M 783,216 l 27,0 0,27 -27,0 z M 810,216 l 27,0 0,27 -27,0 z M 837,216 l 27,0 0,27 -27,0 z M 918,216 l 27,0 0,27 -27,0 z M 945,216 l 27,0 0,27 -27,0 z M 972,216 l 27,0 0,27 -27,0 z M 54,243 l 27,0 0,27 -27,0 z M 108,243 l 27,0 0,27 -27,0 z M 135,243 l 27,0 0,27 -27,0 z M 216,243 l 27,0 0,27 -27,0 z M 270,243 l 27,0 0,27 -27,0 z M 297,243 l 27,0 0,27 -27,0 z M 324,243 l 27,0 0,27 -27,0 z M 405,243 l 27,0 0,27 -27,0 z M 432,243 l 27,0 0,27 -27,0 z M 486,243 l 27,0 0,27 -27,0 z M 648,243 l 27,0 0,27 -27,0 z M 675,243 l 27,0 0,27 -27,0 z M 756,243 l 27,0 0,27 -27,0 z M 27,270 l 27,0 0,27 -27,0 z M 162,270 l 27,0 0,27 -27,0 z M 216,270 l 27,0 0,27 -27,0 z M 243,270 l 27,0 0,27 -27,0 z M 297,270 l 27,0 0,27 -27,0 z M 378,270 l 27,0 0,27 -27,0 z M 405,270 l 27,0 0,27 -27,0 z M 432,270 l 27,0 0,27 -27,0 z M 486,270 l 27,0 0,27 -27,0 z M 540,270 l 27,0 0,27 -27,0 z M 594,270 l 27,0 0,27 -27,0 z M 675,270 l 27,0 0,27 -27,0 z M 702,270 l 27,0 0,27 -27,0 z M 729,270 l 27,0 0,27 -27,0 z M 756,270 l 27,0 0,27 -27,0 z M 810,270 l 27,0 0,27 -27,0 z M 837,270 l 27,0 0,27 -27,0 z M 864,270 l 27,0 0,27 -27,0 z M 918,270 l 27,0 0,27 -27,0 z M 945,270 l 27,0 0,27 -27,0 z M 972,270 l 27,0 0,27 -27,0 z M 54,297 l 27,0 0,27 -27,0 z M 81,297 l 27,0 0,27 -27,0 z M 216,297 l 27,0 0,27 -27,0 z M 297,297 l 27,0 0,27 -27,0 z M 324,297 l 27,0 0,27 -27,0 z M 351,297 l 27,0 0,27 -27,0 z M 378,297 l 27,0 0,27 -27,0 z M 432,297 l 27,0 0,27 -27,0 z M 486,297 l 27,0 0,27 -27,0 z M 513,297 l 27,0 0,27 -27,0 z M 648,297 l 27,0 0,27 -27,0 z M 702,297 l 27,0 0,27 -27,0 z M 729,297 l 27,0 0,27 -27,0 z M 810,297 l 27,0 0,27 -27,0 z M 837,297 l 27,0 0,27 -27,0 z M 864,297 l 27,0 0,27 -27,0 z M 891,297 l 27,0 0,27 -27,0 z M 945,297 l 27,0 0,27 -27,0 z M 0,324 l 27,0 0,27 -27,0 z M 81,324 l 27,0 0,27 -27,0 z M 135,324 l 27,0 0,27 -27,0 z M 162,324 l 27,0 0,27 -27,0 z M 270,324 l 27,0 0,27 -27,0 z M 297,324 l 27,0 0,27 -27,0 z M 324,324 l 27,0 0,27 -27,0 z M 378,324 l 27,0 0,27 -27,0 z M 405,324 l 27,0 0,27 -27,0 z M 432,324 l 27,0 0,27 -27,0 z M 486,324 l 27,0 0,27 -27,0 z M 513,324 l 27,0 0,27 -27,0 z M 594,324 l 27,0 0,27 -27,0 z M 648,324 l 27,0 0,27 -27,0 z M 675,324 l 27,0 0,27 -27,0 z M 702,324 l 27,0 0,27 -27,0 z M 729,324 l 27,0 0,27 -27,0 z M 783,324 l 27,0 0,27 -27,0 z M 810,324 l 27,0 0,27 -27,0 z M 864,324 l 27,0 0,27 -27,0 z M 891,324 l 27,0 0,27 -27,0 z M 918,324 l 27,0 0,27 -27,0 z M 945,324 l 27,0 0,27 -27,0 z M 0,351 l 27,0 0,27 -27,0 z M 27,351 l 27,0 0,27 -27,0 z M 108,351 l 27,0 0,27 -27,0 z M 189,351 l 27,0 0,27 -27,0 z M 243,351 l 27,0 0,27 -27,0 z M 270,351 l 27,0 0,27 -27,0 z M 324,351 l 27,0 0,27 -27,0 z M 351,351 l 27,0 0,27 -27,0 z M 675,351 l 27,0 0,27 -27,0 z M 756,351 l 27,0 0,27 -27,0 z M 783,351 l 27,0 0,27 -27,0 z M 837,351 l 27,0 0,27 -27,0 z M 891,351 l 27,0 0,27 -27,0 z M 918,351 l 27,0 0,27 -27,0 z M 0,378 l 27,0 0,27 -27,0 z M 27,378 l 27,0 0,27 -27,0 z M 54,378 l 27,0 0,27 -27,0 z M 81,378 l 27,0 0,27 -27,0 z M 162,378 l 27,0 0,27 -27,0 z M 189,378 l 27,0 0,27 -27,0 z M 243,378 l 27,0 0,27 -27,0 z M 297,378 l 27,0 0,27 -27,0 z M 432,378 l 27,0 0,27 -27,0 z M 459,378 l 27,0 0,27 -27,0 z M 486,378 l 27,0 0,27 -27,0 z M 513,378 l 27,0 0,27 -27,0 z M 540,378 l 27,0 0,27 -27,0 z M 594,378 l 27,0 0,27 -27,0 z M 621,378 l 27,0 0,27 -27,0 z M 648,378 l 27,0 0,27 -27,0 z M 675,378 l 27,0 0,27 -27,0 z M 702,378 l 27,0 0,27 -27,0 z M 729,378 l 27,0 0,27 -27,0 z M 756,378 l 27,0 0,27 -27,0 z M 783,378 l 27,0 0,27 -27,0 z M 837,378 l 27,0 0,27 -27,0 z M 891,378 l 27,0 0,27 -27,0 z M 945,378 l 27,0 0,27 -27,0 z M 972,378 l 27,0 0,27 -27,0 z M 81,405 l 27,0 0,27 -27,0 z M 108,405 l 27,0 0,27 -27,0 z M 189,405 l 27,0 0,27 -27,0 z M 216,405 l 27,0 0,27 -27,0 z M 243,405 l 27,0 0,27 -27,0 z M 270,405 l 27,0 0,27 -27,0 z M 324,405 l 27,0 0,27 -27,0 z M 405,405 l 27,0 0,27 -27,0 z M 459,405 l 27,0 0,27 -27,0 z M 513,405 l 27,0 0,27 -27,0 z M 540,405 l 27,0 0,27 -27,0 z M 567,405 l 27,0 0,27 -27,0 z M 594,405 l 27,0 0,27 -27,0 z M 621,405 l 27,0 0,27 -27,0 z M 756,405 l 27,0 0,27 -27,0 z M 783,405 l 27,0 0,27 -27,0 z M 810,405 l 27,0 0,27 -27,0 z M 837,405 l 27,0 0,27 -27,0 z M 945,405 l 27,0 0,27 -27,0 z M 972,405 l 27,0 0,27 -27,0 z M 81,432 l 27,0 0,27 -27,0 z M 135,432 l 27,0 0,27 -27,0 z M 162,432 l 27,0 0,27 -27,0 z M 216,432 l 27,0 0,27 -27,0 z M 243,432 l 27,0 0,27 -27,0 z M 378,432 l 27,0 0,27 -27,0 z M 432,432 l 27,0 0,27 -27,0 z M 486,432 l 27,0 0,27 -27,0 z M 513,432 l 27,0 0,27 -27,0 z M 540,432 l 27,0 0,27 -27,0 z M 594,432 l 27,0 0,27 -27,0 z M 648,432 l 27,0 0,27 -27,0 z M 675,432 l 27,0 0,27 -27,0 z M 729,432 l 27,0 0,27 -27,0 z M 783,432 l 27,0 0,27 -27,0 z M 810,432 l 27,0 0,27 -27,0 z M 864,432 l 27,0 0,27 -27,0 z M 918,432 l 27,0 0,27 -27,0 z M 945,432 l 27,0 0,27 -27,0 z M 0,459 l 27,0 0,27 -27,0 z M 27,459 l 27,0 0,27 -27,0 z M 189,459 l 27,0 0,27 -27,0 z M 216,459 l 27,0 0,27 -27,0 z M 270,459 l 27,0 0,27 -27,0 z M 405,459 l 27,0 0,27 -27,0 z M 432,459 l 27,0 0,27 -27,0 z M 459,459 l 27,0 0,27 -27,0 z M 486,459 l 27,0 0,27 -27,0 z M 513,459 l 27,0 0,27 -27,0 z M 540,459 l 27,0 0,27 -27,0 z M 594,459 l 27,0 0,27 -27,0 z M 648,459 l 27,0 0,27 -27,0 z M 756,459 l 27,0 0,27 -27,0 z M 783,459 l 27,0 0,27 -27,0 z M 891,459 l 27,0 0,27 -27,0 z M 918,459 l 27,0 0,27 -27,0 z M 54,486 l 27,0 0,27 -27,0 z M 135,486 l 27,0 0,27 -27,0 z M 162,486 l 27,0 0,27 -27,0 z M 189,486 l 27,0 0,27 -27,0 z M 216,486 l 27,0 0,27 -27,0 z M 351,486 l 27,0 0,27 -27,0 z M 432,486 l 27,0 0,27 -27,0 z M 513,486 l 27,0 0,27 -27,0 z M 540,486 l 27,0 0,27 -27,0 z M 675,486 l 27,0 0,27 -27,0 z M 729,486 l 27,0 0,27 -27,0 z M 756,486 l 27,0 0,27 -27,0 z M 783,486 l 27,0 0,27 -27,0 z M 810,486 l 27,0 0,27 -27,0 z M 837,486 l 27,0 0,27 -27,0 z M 864,486 l 27,0 0,27 -27,0 z M 945,486 l 27,0 0,27 -27,0 z M 972,486 l 27,0 0,27 -27,0 z M 27,513 l 27,0 0,27 -27,0 z M 54,513 l 27,0 0,27 -27,0 z M 108,513 l 27,0 0,27 -27,0 z M 135,513 l 27,0 0,27 -27,0 z M 270,513 l 27,0 0,27 -27,0 z M 297,513 l 27,0 0,27 -27,0 z M 324,513 l 27,0 0,27 -27,0 z M 459,513 l 27,0 0,27 -27,0 z M 486,513 l 27,0 0,27 -27,0 z M 540,513 l 27,0 0,27 -27,0 z M 594,513 l 27,0 0,27 -27,0 z M 648,513 l 27,0 0,27 -27,0 z M 756,513 l 27,0 0,27 -27,0 z M 783,513 l 27,0 0,27 -27,0 z M 810,513 l 27,0 0,27 -27,0 z M 837,513 l 27,0 0,27 -27,0 z M 972,513 l 27,0 0,27 -27,0 z M 0,540 l 27,0 0,27 -27,0 z M 27,540 l 27,0 0,27 -27,0 z M 54,540 l 27,0 0,27 -27,0 z M 135,540 l 27,0 0,27 -27,0 z M 162,540 l 27,0 0,27 -27,0 z M 189,540 l 27,0 0,27 -27,0 z M 243,540 l 27,0 0,27 -27,0 z M 378,540 l 27,0 0,27 -27,0 z M 405,540 l 27,0 0,27 -27,0 z M 432,540 l 27,0 0,27 -27,0 z M 459,540 l 27,0 0,27 -27,0 z M 486,540 l 27,0 0,27 -27,0 z M 513,540 l 27,0 0,27 -27,0 z M 594,540 l 27,0 0,27 -27,0 z M 675,540 l 27,0 0,27 -27,0 z M 702,540 l 27,0 0,27 -27,0 z M 810,540 l 27,0 0,27 -27,0 z M 837,540 l 27,0 0,27 -27,0 z M 864,540 l 27,0 0,27 -27,0 z M 891,540 l 27,0 0,27 -27,0 z M 918,540 l 27,0 0,27 -27,0 z M 945,540 l 27,0 0,27 -27,0 z M 0,567 l 27,0 0,27 -27,0 z M 54,567 l 27,0 0,27 -27,0 z M 81,567 l 27,0 0,27 -27,0 z M 243,567 l 27,0 0,27 -27,0 z M 297,567 l 27,0 0,27 -27,0 z M 351,567 l 27,0 0,27 -27,0 z M 405,567 l 27,0 0,27 -27,0 z M 459,567 l 27,0 0,27 -27,0 z M 486,567 l 27,0 0,27 -27,0 z M 567,567 l 27,0 0,27 -27,0 z M 594,567 l 27,0 0,27 -27,0 z M 621,567 l 27,0 0,27 -27,0 z M 675,567 l 27,0 0,27 -27,0 z M 837,567 l 27,0 0,27 -27,0 z M 945,567 l 27,0 0,27 -27,0 z M 0,594 l 27,0 0,27 -27,0 z M 81,594 l 27,0 0,27 -27,0 z M 135,594 l 27,0 0,27 -27,0 z M 162,594 l 27,0 0,27 -27,0 z M 189,594 l 27,0 0,27 -27,0 z M 297,594 l 27,0 0,27 -27,0 z M 351,594 l 27,0 0,27 -27,0 z M 378,594 l 27,0 0,27 -27,0 z M 432,594 l 27,0 0,27 -27,0 z M 621,594 l 27,0 0,27 -27,0 z M 675,594 l 27,0 0,27 -27,0 z M 702,594 l 27,0 0,27 -27,0 z M 729,594 l 27,0 0,27 -27,0 z M 783,594 l 27,0 0,27 -27,0 z M 891,594 l 27,0 0,27 -27,0 z M 918,594 l 27,0 0,27 -27,0 z M 945,594 l 27,0 0,27 -27,0 z M 972,594 l 27,0 0,27 -27,0 z M 0,621 l 27,0 0,27 -27,0 z M 27,621 l 27,0 0,27 -27,0 z M 54,621 l 27,0 0,27 -27,0 z M 81,621 l 27,0 0,27 -27,0 z M 108,621 l 27,0 0,27 -27,0 z M 135,621 l 27,0 0,27 -27,0 z M 189,621 l 27,0 0,27 -27,0 z M 216,621 l 27,0 0,27 -27,0 z M 243,621 l 27,0 0,27 -27,0 z M 297,621 l 27,0 0,27 -27,0 z M 324,621 l 27,0 0,27 -27,0 z M 351,621 l 27,0 0,27 -27,0 z M 459,621 l 27,0 0,27 -27,0 z M 486,621 l 27,0 0,27 -27,0 z M 540,621 l 27,0 0,27 -27,0 z M 702,621 l 27,0 0,27 -27,0 z M 783,621 l 27,0 0,27 -27,0 z M 837,621 l 27,0 0,27 -27,0 z M 945,621 l 27,0 0,27 -27,0 z M 54,648 l 27,0 0,27 -27,0 z M 162,648 l 27,0 0,27 -27,0 z M 432,648 l 27,0 0,27 -27,0 z M 459,648 l 27,0 0,27 -27,0 z M 540,648 l 27,0 0,27 -27,0 z M 648,648 l 27,0 0,27 -27,0 z M 675,648 l 27,0 0,27 -27,0 z M 702,648 l 27,0 0,27 -27,0 z M 783,648 l 27,0 0,27 -27,0 z M 810,648 l 27,0 0,27 -27,0 z M 864,648 l 27,0 0,27 -27,0 z M 891,648 l 27,0 0,27 -27,0 z M 918,648 l 27,0 0,27 -27,0 z M 945,648 l 27,0 0,27 -27,0 z M 0,675 l 27,0 0,27 -27,0 z M 54,675 l 27,0 0,27 -27,0 z M 81,675 l 27,0 0,27 -27,0 z M 135,675 l 27,0 0,27 -27,0 z M 216,675 l 27,0 0,27 -27,0 z M 243,675 l 27,0 0,27 -27,0 z M 378,675 l 27,0 0,27 -27,0 z M 405,675 l 27,0 0,27 -27,0 z M 459,675 l 27,0 0,27 -27,0 z M 486,675 l 27,0 0,27 -27,0 z M 567,675 l 27,0 0,27 -27,0 z M 594,675 l 27,0 0,27 -27,0 z M 648,675 l 27,0 0,27 -27,0 z M 756,675 l 27,0 0,27 -27,0 z M 783,675 l 27,0 0,27 -27,0 z M 837,675 l 27,0 0,27 -27,0 z M 918,675 l 27,0 0,27 -27,0 z M 0,702 l 27,0 0,27 -27,0 z M 108,702 l 27,0 0,27 -27,0 z M 135,702 l 27,0 0,27 -27,0 z M 162,702 l 27,0 0,27 -27,0 z M 189,702 l 27,0 0,27 -27,0 z M 216,702 l 27,0 0,27 -27,0 z M 243,702 l 27,0 0,27 -27,0 z M 297,702 l 27,0 0,27 -27,0 z M 351,702 l 27,0 0,27 -27,0 z M 405,702 l 27,0 0,27 -27,0 z M 432,702 l 27,0 0,27 -27,0 z M 594,702 l 27,0 0,27 -27,0 z M 675,702 l 27,0 0,27 -27,0 z M 729,702 l 27,0 0,27 -27,0 z M 810,702 l 27,0 0,27 -27,0 z M 837,702 l 27,0 0,27 -27,0 z M 891,702 l 27,0 0,27 -27,0 z M 918,702 l 27,0 0,27 -27,0 z M 945,702 l 27,0 0,27 -27,0 z M 972,702 l 27,0 0,27 -27,0 z M 0,729 l 27,0 0,27 -27,0 z M 81,729 l 27,0 0,27 -27,0 z M 243,729 l 27,0 0,27 -27,0 z M 432,729 l 27,0 0,27 -27,0 z M 459,729 l 27,0 0,27 -27,0 z M 486,729 l 27,0 0,27 -27,0 z M 513,729 l 27,0 0,27 -27,0 z M 540,729 l 27,0 0,27 -27,0 z M 567,729 l 27,0 0,27 -27,0 z M 621,729 l 27,0 0,27 -27,0 z M 702,729 l 27,0 0,27 -27,0 z M 729,729 l 27,0 0,27 -27,0 z M 756,729 l 27,0 0,27 -27,0 z M 783,729 l 27,0 0,27 -27,0 z M 864,729 l 27,0 0,27 -27,0 z M 945,729 l 27,0 0,27 -27,0 z M 0,756 l 27,0 0,27 -27,0 z M 81,756 l 27,0 0,27 -27,0 z M 108,756 l 27,0 0,27 -27,0 z M 135,756 l 27,0 0,27 -27,0 z M 162,756 l 27,0 0,27 -27,0 z M 216,756 l 27,0 0,27 -27,0 z M 243,756 l 27,0 0,27 -27,0 z M 297,756 l 27,0 0,27 -27,0 z M 378,756 l 27,0 0,27 -27,0 z M 405,756 l 27,0 0,27 -27,0 z M 432,756 l 27,0 0,27 -27,0 z M 459,756 l 27,0 0,27 -27,0 z M 540,756 l 27,0 0,27 -27,0 z M 567,756 l 27,0 0,27 -27,0 z M 621,756 l 27,0 0,27 -27,0 z M 648,756 l 27,0 0,27 -27,0 z M 675,756 l 27,0 0,27 -27,0 z M 702,756 l 27,0 0,27 -27,0 z M 729,756 l 27,0 0,27 -27,0 z M 756,756 l 27,0 0,27 -27,0 z M 783,756 l 27,0 0,27 -27,0 z M 810,756 l 27,0 0,27 -27,0 z M 837,756 l 27,0 0,27 -27,0 z M 864,756 l 27,0 0,27 -27,0 z M 891,756 l 27,0 0,27 -27,0 z M 918,756 l 27,0 0,27 -27,0 z M 945,756 l 27,0 0,27 -27,0 z M 972,756 l 27,0 0,27 -27,0 z M 216,783 l 27,0 0,27 -27,0 z M 270,783 l 27,0 0,27 -27,0 z M 324,783 l 27,0 0,27 -27,0 z M 351,783 l 27,0 0,27 -27,0 z M 459,783 l 27,0 0,27 -27,0 z M 513,783 l 27,0 0,27 -27,0 z M 594,783 l 27,0 0,27 -27,0 z M 621,783 l 27,0 0,27 -27,0 z M 675,783 l 27,0 0,27 -27,0 z M 756,783 l 27,0 0,27 -27,0 z M 864,783 l 27,0 0,27 -27,0 z M 0,810 l 27,0 0,27 -27,0 z M 27,810 l 27,0 0,27 -27,0 z M 54,810 l 27,0 0,27 -27,0 z M 81,810 l 27,0 0,27 -27,0 z M 108,810 l 27,0 0,27 -27,0 z M 135,810 l 27,0 0,27 -27,0 z M 162,810 l 27,0 0,27 -27,0 z M 297,810 l 27,0 0,27 -27,0 z M 324,810 l 27,0 0,27 -27,0 z M 378,810 l 27,0 0,27 -27,0 z M 459,810 l 27,0 0,27 -27,0 z M 486,810 l 27,0 0,27 -27,0 z M 513,810 l 27,0 0,27 -27,0 z M 540,810 l 27,0 0,27 -27,0 z M 648,810 l 27,0 0,27 -27,0 z M 702,810 l 27,0 0,27 -27,0 z M 756,810 l 27,0 0,27 -27,0 z M 810,810 l 27,0 0,27 -27,0 z M 864,810 l 27,0 0,27 -27,0 z M 891,810 l 27,0 0,27 -27,0 z M 945,810 l 27,0 0,27 -27,0 z M 972,810 l 27,0 0,27 -27,0 z M 0,837 l 27,0 0,27 -27,0 z M 162,837 l 27,0 0,27 -27,0 z M 243,837 l 27,0 0,27 -27,0 z M 405,837 l 27,0 0,27 -27,0 z M 459,837 l 27,0 0,27 -27,0 z M 513,837 l 27,0 0,27 -27,0 z M 540,837 l 27,0 0,27 -27,0 z M 594,837 l 27,0 0,27 -27,0 z M 702,837 l 27,0 0,27 -27,0 z M 756,837 l 27,0 0,27 -27,0 z M 864,837 l 27,0 0,27 -27,0 z M 945,837 l 27,0 0,27 -27,0 z M 0,864 l 27,0 0,27 -27,0 z M 54,864 l 27,0 0,27 -27,0 z M 81,864 l 27,0 0,27 -27,0 z M 108,864 l 27,0 0,27 -27,0 z M 162,864 l 27,0 0,27 -27,0 z M 216,864 l 27,0 0,27 -27,0 z M 270,864 l 27,0 0,27 -27,0 z M 297,864 l 27,0 0,27 -27,0 z M 324,864 l 27,0 0,27 -27,0 z M 378,864 l 27,0 0,27 -27,0 z M 432,864 l 27,0 0,27 -27,0 z M 459,864 l 27,0 0,27 -27,0 z M 486,864 l 27,0 0,27 -27,0 z M 540,864 l 27,0 0,27 -27,0 z M 567,864 l 27,0 0,27 -27,0 z M 594,864 l 27,0 0,27 -27,0 z M 621,864 l 27,0 0,27 -27,0 z M 648,864 l 27,0 0,27 -27,0 z M 675,864 l 27,0 0,27 -27,0 z M 702,864 l 27,0 0,27 -27,0 z M 729,864 l 27,0 0,27 -27,0 z M 756,864 l 27,0 0,27 -27,0 z M 783,864 l 27,0 0,27 -27,0 z M 810,864 l 27,0 0,27 -27,0 z M 837,864 l 27,0 0,27 -27,0 z M 864,864 l 27,0 0,27 -27,0 z M 918,864 l 27,0 0,27 -27,0 z M 945,864 l 27,0 0,27 -27,0 z M 0,891 l 27,0 0,27 -27,0 z M 54,891 l 27,0 0,27 -27,0 z M 81,891 l 27,0 0,27 -27,0 z M 108,891 l 27,0 0,27 -27,0 z M 162,891 l 27,0 0,27 -27,0 z M 216,891 l 27,0 0,27 -27,0 z M 243,891 l 27,0 0,27 -27,0 z M 270,891 l 27,0 0,27 -27,0 z M 297,891 l 27,0 0,27 -27,0 z M 324,891 l 27,0 0,27 -27,0 z M 351,891 l 27,0 0,27 -27,0 z M 378,891 l 27,0 0,27 -27,0 z M 405,891 l 27,0 0,27 -27,0 z M 432,891 l 27,0 0,27 -27,0 z M 486,891 l 27,0 0,27 -27,0 z M 513,891 l 27,0 0,27 -27,0 z M 621,891 l 27,0 0,27 -27,0 z M 729,891 l 27,0 0,27 -27,0 z M 756,891 l 27,0 0,27 -27,0 z M 810,891 l 27,0 0,27 -27,0 z M 864,891 l 27,0 0,27 -27,0 z M 918,891 l 27,0 0,27 -27,0 z M 0,918 l 27,0 0,27 -27,0 z M 54,918 l 27,0 0,27 -27,0 z M 81,918 l 27,0 0,27 -27,0 z M 108,918 l 27,0 0,27 -27,0 z M 162,918 l 27,0 0,27 -27,0 z M 216,918 l 27,0 0,27 -27,0 z M 270,918 l 27,0 0,27 -27,0 z M 324,918 l 27,0 0,27 -27,0 z M 405,918 l 27,0 0,27 -27,0 z M 432,918 l 27,0 0,27 -27,0 z M 594,918 l 27,0 0,27 -27,0 z M 648,918 l 27,0 0,27 -27,0 z M 675,918 l 27,0 0,27 -27,0 z M 702,918 l 27,0 0,27 -27,0 z M 756,918 l 27,0 0,27 -27,0 z M 783,918 l 27,0 0,27 -27,0 z M 837,918 l 27,0 0,27 -27,0 z M 891,918 l 27,0 0,27 -27,0 z M 918,918 l 27,0 0,27 -27,0 z M 972,918 l 27,0 0,27 -27,0 z M 0,945 l 27,0 0,27 -27,0 z M 162,945 l 27,0 0,27 -27,0 z M 243,945 l 27,0 0,27 -27,0 z M 297,945 l 27,0 0,27 -27,0 z M 324,945 l 27,0 0,27 -27,0 z M 351,945 l 27,0 0,27 -27,0 z M 567,945 l 27,0 0,27 -27,0 z M 594,945 l 27,0 0,27 -27,0 z M 729,945 l 27,0 0,27 -27,0 z M 756,945 l 27,0 0,27 -27,0 z M 810,945 l 27,0 0,27 -27,0 z M 864,945 l 27,0 0,27 -27,0 z M 972,945 l 27,0 0,27 -27,0 z M 0,972 l 27,0 0,27 -27,0 z M 27,972 l 27,0 0,27 -27,0 z M 54,972 l 27,0 0,27 -27,0 z M 81,972 l 27,0 0,27 -27,0 z M 108,972 l 27,0 0,27 -27,0 z M 135,972 l 27,0 0,27 -27,0 z M 162,972 l 27,0 0,27 -27,0 z M 243,972 l 27,0 0,27 -27,0 z M 297,972 l 27,0 0,27 -27,0 z M 324,972 l 27,0 0,27 -27,0 z M 405,972 l 27,0 0,27 -27,0 z M 594,972 l 27,0 0,27 -27,0 z M 621,972 l 27,0 0,27 -27,0 z M 648,972 l 27,0 0,27 -27,0 z M 675,972 l 27,0 0,27 -27,0 z M 702,972 l 27,0 0,27 -27,0 z M 783,972 l 27,0 0,27 -27,0 z M 837,972 l 27,0 0,27 -27,0 z M 891,972 l 27,0 0,27 -27,0 z M 918,972 l 27,0 0,27 -27,0 z M 945,972 l 27,0 0,27 -27,0 z M 972,972 l 27,0 0,27 -27,0 z " />
	</g>
</svg>
